<?xml version="1.0" encoding="UTF-8"?>
<svg id="Capa_1" data-name="Capa 1" xmlns="http://www.w3.org/2000/svg" viewBox="0 0 481.1 15">
  <defs>
    <style>
      .cls-1 {
        fill: #666;
        stroke-width: 0px;
      }
    </style>
  </defs>
  <path class="cls-1" d="m10.3,12.1v1.8c-1.2.6-2.6,1-4.2,1-1.3,0-2.4-.3-3.2-.8s-1.6-1.2-2.1-2.1-.8-1.9-.8-2.9c0-1.7.6-3.1,1.8-4.2s2.7-1.7,4.4-1.7c1.2,0,2.5.3,4,.9v1.8c-1.3-.8-2.6-1.1-3.9-1.1s-2.4.4-3.3,1.2-1.3,1.9-1.3,3.1.4,2.3,1.3,3.1,1.9,1.2,3.3,1.2,2.7-.5,4-1.3h0Z"/>
  <path class="cls-1" d="m15.6,3.3h6.5v1.5h-4.8v3.5h4.7v1.5h-4.7v3.5h5v1.5h-6.6l-.1-11.5h0Z"/>
  <path class="cls-1" d="m36.5,3.3h1.6v11.4h-1.4l-7.6-8.8v8.8h-1.5V3.3h1.3l7.7,8.9V3.3h-.1Z"/>
  <path class="cls-1" d="m42.8,3.3h9.6v1.5h-4v10h-1.6V4.8h-3.9l-.1-1.5h0Z"/>
  <path class="cls-1" d="m57.3,14.8V3.3h2.9c1.2,0,2.1.3,2.8.9.7.6,1,1.3,1,2.3,0,.7-.2,1.2-.5,1.7s-.8.9-1.4,1.1c.4.2.7.6,1.1,1,.3.4.8,1.1,1.5,2.2.4.6.7,1.1,1,1.5l.6.8h-1.9l-.5-.8-.1-.1-.3-.5-.5-.8-.6-.9c-.3-.5-.7-.8-.9-1.1s-.5-.5-.8-.6-.6-.2-1.1-.2h-.4v5h-1.9Zm2.1-10.1h-.5v3.6h.6c.8,0,1.4-.1,1.7-.2s.6-.4.7-.6.3-.6.3-1-.1-.7-.3-1-.5-.5-.8-.6-.9-.2-1.7-.2Z"/>
  <path class="cls-1" d="m75.3,3.2c1.8,0,3.2.6,4.4,1.7,1.2,1.1,1.8,2.5,1.8,4.2s-.6,3.1-1.8,4.2-2.7,1.7-4.5,1.7-3.2-.5-4.3-1.7c-1.2-1.1-1.7-2.5-1.7-4.1s.6-3.1,1.7-4.2c1.2-1.3,2.7-1.8,4.4-1.8h0Zm.1,1.5c-1.3,0-2.4.4-3.2,1.2-.8.8-1.3,1.9-1.3,3.1s.4,2.3,1.3,3.1c.8.8,1.9,1.2,3.2,1.2s2.3-.4,3.2-1.2c.8-.8,1.3-1.9,1.3-3.1s-.4-2.2-1.3-3.1-1.9-1.2-3.2-1.2h0Z"/>
  <path class="cls-1" d="m94.9,14.7V3.3h3.9c1.6,0,2.8.2,3.7.7s1.6,1.2,2.2,2.1c.5.9.8,1.9.8,3,0,.8-.1,1.5-.4,2.2s-.7,1.3-1.3,1.8c-.6.5-1.2,1-1.9,1.2-.4.2-.8.3-1.2.3s-1.1.1-2.1.1h-3.7Zm3.7-9.9h-2v8.5h2.1c.8,0,1.4-.1,1.9-.2s.8-.2,1.1-.4.6-.4.8-.6c.8-.8,1.2-1.9,1.2-3.1s-.4-2.2-1.2-3c-.3-.3-.7-.5-1.1-.7s-.8-.3-1.1-.4-.9-.1-1.7-.1h0Z"/>
  <path class="cls-1" d="m110.8,3.3h6.5v1.5h-4.8v3.5h4.7v1.5h-4.7v3.5h5v1.5h-6.6l-.1-11.5h0Z"/>
  <path class="cls-1" d="m140.4,12.1v1.8c-1.2.6-2.6,1-4.2,1-1.3,0-2.4-.3-3.2-.8s-1.6-1.2-2.1-2.1-.8-1.9-.8-2.9c0-1.7.6-3.1,1.8-4.2s2.6-1.7,4.4-1.7c1.2,0,2.5.3,4,.9v1.8c-1.3-.8-2.6-1.1-3.9-1.1s-2.4.4-3.3,1.2-1.3,1.9-1.3,3.1.4,2.3,1.3,3.1,1.9,1.2,3.3,1.2,2.6-.5,4-1.3h0Z"/>
  <path class="cls-1" d="m151.3,3.2c1.8,0,3.2.6,4.4,1.7,1.2,1.1,1.8,2.5,1.8,4.2s-.6,3.1-1.8,4.2-2.7,1.7-4.5,1.7-3.2-.5-4.3-1.7c-1.1-1.1-1.7-2.5-1.7-4.1s.6-3.1,1.7-4.2c1.2-1.3,2.7-1.8,4.4-1.8h0Zm.1,1.5c-1.3,0-2.4.4-3.2,1.2s-1.3,1.9-1.3,3.1.4,2.3,1.3,3.1c.8.8,1.9,1.2,3.2,1.2s2.3-.4,3.2-1.2,1.3-1.9,1.3-3.1-.4-2.2-1.3-3.1-1.9-1.2-3.2-1.2h0Z"/>
  <path class="cls-1" d="m172,3.3h1.6v11.4h-1.5l-7.6-8.8v8.8h-1.5V3.3h1.3l7.7,8.9V3.3h0Z"/>
  <path class="cls-1" d="m178.3,3.3h9.6v1.5h-4v10h-1.6V4.8h-3.9l-.1-1.5h0Z"/>
  <path class="cls-1" d="m192.8,14.8V3.3h2.9c1.2,0,2.1.3,2.8.9s1,1.3,1,2.3c0,.7-.2,1.2-.5,1.7s-.8.9-1.4,1.1c.4.2.7.6,1.1,1s.8,1.1,1.5,2.2c.4.6.7,1.1,1,1.5l.6.8h-1.9l-.5-.8-.1-.1-.3-.5-.5-.8-.6-.9c-.3-.5-.6-.8-.9-1.1s-.5-.5-.8-.6-.6-.2-1.1-.2h-.4v5h-1.9Zm2.2-10.1h-.5v3.6h.6c.8,0,1.4-.1,1.7-.2s.6-.4.7-.6.3-.6.3-1-.1-.7-.3-1-.5-.5-.8-.6c-.4-.1-.9-.2-1.7-.2Z"/>
  <path class="cls-1" d="m210.9,3.2c1.8,0,3.2.6,4.4,1.7,1.2,1.1,1.8,2.5,1.8,4.2s-.6,3.1-1.8,4.2-2.7,1.7-4.5,1.7-3.2-.5-4.3-1.7c-1.1-1.1-1.7-2.5-1.7-4.1s.6-3.1,1.7-4.2c1.1-1.3,2.6-1.8,4.4-1.8h0Zm0,1.5c-1.3,0-2.4.4-3.2,1.2s-1.3,1.9-1.3,3.1.4,2.3,1.3,3.1c.8.8,1.9,1.2,3.2,1.2s2.3-.4,3.2-1.2,1.3-1.9,1.3-3.1-.4-2.2-1.3-3.1-1.9-1.2-3.2-1.2h0Z"/>
  <path class="cls-1" d="m222.4,3.3h1.6v9.9h5.1v1.5h-6.8l.1-11.4h0Z"/>
  <path class="cls-1" d="m248.1,9.1h3.8v4.8c-1.4.6-2.8.9-4.2.9-1.9,0-3.4-.5-4.5-1.7-1.1-1.1-1.7-2.5-1.7-4.1,0-1.7.6-3.1,1.8-4.3s2.6-1.7,4.4-1.7c.6,0,1.2.1,1.8.2s1.3.4,2.2.8v1.7c-1.4-.8-2.7-1.2-4.1-1.2-1.2,0-2.3.4-3.2,1.3s-1.3,1.9-1.3,3.1.4,2.4,1.3,3.2c.9.8,2,1.2,3.3,1.2.6,0,1.4-.1,2.4-.5h.2v-2.4h-2.2v-1.3h0Z"/>
  <path class="cls-1" d="m257.7,3.3h6.5v1.5h-4.8v3.5h4.7v1.5h-4.7v3.5h5v1.5h-6.6l-.1-11.5h0Z"/>
  <path class="cls-1" d="m275,3.2c1.8,0,3.2.6,4.4,1.7,1.2,1.1,1.8,2.5,1.8,4.2s-.6,3.1-1.8,4.2-2.7,1.7-4.5,1.7-3.2-.5-4.3-1.7c-1.1-1.1-1.7-2.5-1.7-4.1s.6-3.1,1.7-4.2c1.2-1.3,2.7-1.8,4.4-1.8h0Zm.1,1.5c-1.3,0-2.4.4-3.2,1.2s-1.3,1.9-1.3,3.1.4,2.3,1.3,3.1c.8.8,1.9,1.2,3.2,1.2s2.3-.4,3.2-1.2,1.3-1.9,1.3-3.1-.4-2.2-1.3-3.1-1.9-1.2-3.2-1.2h0Z"/>
  <path class="cls-1" d="m286.6,14.7V3.3h3.9c1.5,0,2.8.2,3.7.7s1.6,1.2,2.2,2.1c.5.9.8,1.9.8,3,0,.8-.1,1.5-.4,2.2s-.7,1.3-1.3,1.8c-.6.5-1.2,1-1.9,1.2-.4.2-.8.3-1.2.3-.4.1-1,.1-2.1.1h-3.7Zm3.7-9.9h-2v8.5h2.1c.8,0,1.5-.1,1.9-.2s.8-.2,1.1-.4.6-.4.8-.6c.8-.8,1.2-1.9,1.2-3.1s-.4-2.2-1.2-3c-.3-.3-.7-.5-1-.7-.4-.2-.8-.3-1.1-.4s-1-.1-1.8-.1h0Z"/>
  <path class="cls-1" d="m302.5,3.3h6.5v1.5h-4.9v3.5h4.7v1.5h-4.7v3.5h5v1.5h-6.6V3.3h0Zm4.7-3.3l-1.9,2.4h-.9l1.1-2.4h1.7Z"/>
  <path class="cls-1" d="m317,10l-1.2-.8c-.8-.5-1.3-.9-1.7-1.4-.3-.5-.5-1-.5-1.6,0-.9.3-1.6.9-2.2.6-.6,1.4-.8,2.4-.8s1.8.3,2.6.8v1.9c-.8-.8-1.7-1.2-2.7-1.2-.5,0-1,.1-1.3.4s-.5.6-.5,1c0,.3.1.7.4,1s.7.6,1.2.9l1.2.7c1.4.8,2.1,1.9,2.1,3.2,0,.9-.3,1.7-.9,2.2-.6.6-1.4.9-2.4.9-1.1,0-2.2-.4-3.1-1v-2.1c.9,1.1,1.9,1.7,3.1,1.7.5,0,.9-.1,1.3-.4s.5-.6.5-1.1c.2-.9-.3-1.5-1.4-2.1h0Z"/>
  <path class="cls-1" d="m325.3,3.3h1.6v11.4h-1.6V3.3Z"/>
  <path class="cls-1" d="m342.6,12.1v1.8c-1.2.6-2.6,1-4.2,1-1.3,0-2.4-.3-3.2-.8s-1.6-1.2-2.1-2.1-.8-1.9-.8-2.9c0-1.7.6-3.1,1.8-4.2s2.6-1.7,4.4-1.7c1.2,0,2.5.3,4,.9v1.8c-1.3-.8-2.6-1.1-3.9-1.1s-2.4.4-3.3,1.2-1.3,1.9-1.3,3.1.4,2.3,1.3,3.1,1.9,1.2,3.3,1.2,2.7-.5,4-1.3h0Z"/>
  <path class="cls-1" d="m353.6,3.2c1.8,0,3.2.6,4.4,1.7,1.2,1.1,1.8,2.5,1.8,4.2s-.6,3.1-1.8,4.2-2.7,1.7-4.5,1.7-3.2-.5-4.3-1.7c-1.1-1.1-1.7-2.5-1.7-4.1s.6-3.1,1.7-4.2c1.2-1.3,2.6-1.8,4.4-1.8h0Zm.1,1.5c-1.3,0-2.4.4-3.2,1.2s-1.3,1.9-1.3,3.1.4,2.3,1.3,3.1c.8.8,1.9,1.2,3.2,1.2s2.3-.4,3.2-1.2,1.3-1.9,1.3-3.1-.4-2.2-1.3-3.1-2-1.2-3.2-1.2h0Z"/>
  <path class="cls-1" d="m382.2,3.3h1.5v11.4h-1.4l-7.6-8.8v8.8h-1.5V3.3h1.3l7.7,8.9V3.3h0Z"/>
  <path class="cls-1" d="m393.2,3.3h1.1l5.1,11.5h-1.7l-1.5-3.4h-4.9l-1.4,3.4h-1.7l5-11.5Zm2.4,6.6l-1.8-4.1-1.7,4.1h3.5Z"/>
  <path class="cls-1" d="m413.3,12.1v1.8c-1.2.6-2.6,1-4.2,1-1.3,0-2.4-.3-3.2-.8s-1.6-1.2-2.1-2.1-.8-1.9-.8-2.9c0-1.7.6-3.1,1.8-4.2,1.2-1.1,2.6-1.7,4.4-1.7,1.2,0,2.5.3,4,.9v1.8c-1.3-.8-2.6-1.1-3.9-1.1s-2.4.4-3.3,1.2-1.3,1.9-1.3,3.1.4,2.3,1.3,3.1,1.9,1.2,3.3,1.2,2.6-.5,4-1.3h0Z"/>
  <path class="cls-1" d="m418.6,3.3h1.6v11.4h-1.6V3.3Z"/>
  <path class="cls-1" d="m431.8,3.2c1.8,0,3.2.6,4.4,1.7,1.2,1.1,1.8,2.5,1.8,4.2s-.6,3.1-1.8,4.2-2.7,1.7-4.5,1.7-3.2-.5-4.3-1.7c-1.1-1.1-1.7-2.5-1.7-4.1s.6-3.1,1.7-4.2c1.2-1.3,2.6-1.8,4.4-1.8h0Zm0,1.5c-1.3,0-2.4.4-3.2,1.2s-1.3,1.9-1.3,3.1.4,2.3,1.3,3.1c.8.8,1.9,1.2,3.2,1.2s2.3-.4,3.2-1.2,1.3-1.9,1.3-3.1-.4-2.2-1.3-3.1-1.9-1.2-3.2-1.2h0Z"/>
  <path class="cls-1" d="m452.4,3.3h1.5v11.4h-1.4l-7.6-8.8v8.8h-1.5V3.3h1.3l7.7,8.9V3.3h0Z"/>
  <path class="cls-1" d="m463.4,3.3h1.1l5.1,11.5h-1.7l-1.5-3.4h-4.9l-1.4,3.4h-1.7l5-11.5Zm2.4,6.6l-1.8-4.1-1.7,4.1h3.5Z"/>
  <path class="cls-1" d="m474.3,3.3h1.6v9.9h5.2v1.5h-6.8V3.3h0Z"/>
</svg>